PathFileType	4	(X/Y/Z)	Kaydara																																																																																																																									
DataRate	CameraRate	NumFrames	NumMarkers	Units	OrigDataRate	OrigDataStartFrame	OrigNumFrames																																																																																																																					
30	30	9	41	mm	30	71	147																																																																																																																					
Frame#	Time	PAIB_LFHD			PAIB_RFHD			PAIB_LBHD			PAIB_RBHD			PAIB_LFTShould			PAIB_RFTShould			PAIB_LRRShould			PAIB_RRRShould			PAIB_T10			PAIB_STRN			PAIB_TRUN			PAIB_LSHO			PAIB_LUPA			PAIB_LELB			PAIB_LFRM			PAIB_LWRA			PAIB_LWRB			PAIB_LFIN			PAIB_RSHO			PAIB_RUPA			PAIB_RELB			PAIB_RFRM			PAIB_RWRA			PAIB_RWRB			PAIB_RFIN			PAIB_LFWT			PAIB_RFWT			PAIB_LBWT			PAIB_RBWT			PAIB_LTHI			PAIB_LKNE			PAIB_LSHN			PAIB_LANK			PAIB_LHEE			PAIB_LTOE			PAIB_RTHI			PAIB_RKNE			PAIB_RSHN			PAIB_RANK			PAIB_RHEE			PAIB_RTOE		
		X1	Y1	Z1	X2	Y2	Z2	X3	Y3	Z3	X4	Y4	Z4	X5	Y5	Z5	X6	Y6	Z6	X7	Y7	Z7	X8	Y8	Z8	X9	Y9	Z9	X10	Y10	Z10	X11	Y11	Z11	X12	Y12	Z12	X13	Y13	Z13	X14	Y14	Z14	X15	Y15	Z15	X16	Y16	Z16	X17	Y17	Z17	X18	Y18	Z18	X19	Y19	Z19	X20	Y20	Z20	X21	Y21	Z21	X22	Y22	Z22	X23	Y23	Z23	X24	Y24	Z24	X25	Y25	Z25	X26	Y26	Z26	X27	Y27	Z27	X28	Y28	Z28	X29	Y29	Z29	X30	Y30	Z30	X31	Y31	Z31	X32	Y32	Z32	X33	Y33	Z33	X34	Y34	Z34	X35	Y35	Z35	X36	Y36	Z36	X37	Y37	Z37	X38	Y38	Z38	X39	Y39	Z39	X40	Y40	Z40	X41	Y41	Z41
																																																																																																																												
56	2.333	176.76092	1673.99353	-1767.02835	-8.12241	1658.5556	-1777.02667	196.52582	1608.92136	-1878.54523	-7.17066	1606.6777	-1881.6362	176.51983	1390.73135	-1754.14551	54.54638	1377.31598	-1744.70093	164.48996	1477.43057	-1887.29507	16.22248	1458.2991	-1864.81659	89.68513	1323.06808	-1980.38589	130.42073	1314.46823	-1722.6593	137.64281	1211.14464	-1715.39658	291.58592	1427.49283	-1849.71497	377.01302	1236.52473	-1915.80276	407.21916	1178.09547	-1994.19495	457.28382	1064.46213	-1966.10321	438.10184	938.78181	-1877.97729	465.98686	930.01846	-1951.29059	493.95859	893.08517	-1894.61975	-75.94046	1385.82962	-1787.13028	-154.90074	1222.90161	-1808.74603	-189.90582	1110.93422	-1794.12384	-186.30369	992.67143	-1711.24435	-92.62746	936.51459	-1600.44037	-169.44593	903.80508	-1621.02615	-140.8212	897.38335	-1550.96771	234.75712	948.16017	-1797.60254	-0.79191	930.47455	-1786.72729	174.0925	995.43877	-2007.24762	29.00588	1002.51328	-1999.15421	252.70144	703.90137	-1928.30139	305.13882	521.14727	-1701.90247	261.3615	331.3768	-1736.40198	235.92129	179.8159	-1876.93878	172.56378	185.83235	-1915.6192	239.73148	104.20211	-1727.5563	-13.37791	714.22462	-2029.88327	-16.36622	461.72672	-1992.19803	47.30264	278.17581	-2027.11624	21.51528	104.08051	-2160.49988	86.68563	120.08642	-2207.66357	35.53258	76.97858	-1992.39456
57	2.367	176.83607	1666.0463	-1735.2832	-7.78972	1650.05234	-1744.5343	196.52758	1599.61823	-1845.97946	-7.16874	1596.97113	-1848.6969	178.37204	1382.22473	-1722.60406	56.35834	1368.48343	-1711.84891	163.66606	1470.87189	-1854.36661	15.69721	1451.8689	-1830.12589	87.01998	1318.84216	-1949.54681	132.70366	1304.96948	-1692.14264	139.95689	1201.43219	-1687.39944	290.55691	1421.92902	-1821.72928	380.0798	1237.63115	-1895.65796	409.85535	1183.07007	-1977.38449	466.19911	1070.96817	-1957.18567	456.86817	940.29198	-1874.60419	481.41586	936.44287	-1949.58389	514.06971	898.40263	-1896.19568	-74.08094	1378.78708	-1750.95886	-155.55459	1217.64854	-1768.58551	-191.67889	1106.73386	-1750.70007	-183.40982	991.72966	-1663.3049	-83.5614	942.14729	-1554.21234	-160.17868	907.54219	-1569.25186	-129.09824	905.33356	-1500.7634	235.44353	941.98357	-1775.88242	0.58248	922.75635	-1763.94348	176.2731	989.92783	-1985.1944	30.83311	997.4894	-1976.58127	255.90166	698.52005	-1900.47165	303.67033	523.8446	-1665.10117	261.1998	330.86845	-1678.40942	232.82495	163.21369	-1798.13248	168.17501	164.12294	-1834.88602	244.16645	105.26211	-1641.32706	-12.46719	714.16008	-2014.2305	-15.94531	460.66296	-1987.58545	46.73055	277.49891	-2024.98459	21.45868	105.23631	-2160.87448	86.82408	121.77566	-2207.20566	35.28053	76.9443	-1993.25943
58	2.4	179.52139	1656.20987	-1700.50369	-5.03961	1640.96741	-1708.65891	198.31844	1589.11896	-1810.8548	-5.40335	1587.25403	-1812.77786	180.77911	1371.80344	-1688.5791	59.06042	1358.0217	-1676.72272	164.89063	1462.56912	-1818.70712	16.94419	1444.46686	-1793.22723	86.60647	1312.73254	-1915.69305	135.6455	1293.73291	-1659.22333	142.80996	1190.12634	-1656.96075	292.36877	1414.32709	-1788.25241	384.06693	1237.09518	-1871.62933	413.88023	1187.07199	-1956.89941	475.50327	1076.63132	-1943.17291	474.84646	942.40128	-1865.90424	496.29951	942.86369	-1941.60843	532.31514	904.05823	-1890.64407	-70.78494	1370.9288	-1712.44202	-154.57843	1211.70837	-1726.18439	-191.63706	1101.57059	-1706.32065	-179.00494	989.50645	-1615.47516	-74.73518	944.48013	-1509.11545	-151.58704	908.64799	-1519.87213	-118.11664	909.75029	-1452.64557	238.19298	934.60121	-1752.88971	4.01655	913.85071	-1738.70636	178.0949	982.79465	-1961.41129	32.52638	991.29654	-1951.44028	254.28596	693.09853	-1869.99741	302.71755	524.0332	-1630.4068	261.04116	330.56786	-1619.60526	232.89158	149.03501	-1716.61697	168.24951	145.39708	-1753.02246	245.73479	109.55816	-1554.25583	-12.24145	713.37372	-1995.99075	-15.35547	459.39827	-1980.04303	46.39453	277.10001	-2021.54022	20.67972	107.2181	-2160.56488	86.07866	124.56086	-2206.30661	34.92093	77.07372	-1993.90976
59	2.433	184.67073	1646.84021	-1662.76917	0.04272	1632.11746	-1669.51202	202.54799	1579.27002	-1772.80212	-1.1076	1577.9512	-1773.34839	185.61565	1361.24725	-1652.29034	63.96486	1347.939	-1639.03641	168.40044	1454.32297	-1781.25641	20.5286	1437.21939	-1754.10599	88.30381	1306.50208	-1879.2276	140.85132	1283.15231	-1623.82156	147.28612	1179.23019	-1623.3844	296.53217	1407.12509	-1751.64627	389.2548	1235.75241	-1843.72757	418.91361	1189.78897	-1932.11502	484.75788	1080.98778	-1923.09937	491.93027	944.60358	-1849.20822	510.71194	948.13087	-1926.33865	549.96349	909.41544	-1877.97531	-65.479	1363.05298	-1672.18719	-151.28856	1205.66093	-1683.35495	-189.30763	1096.25313	-1662.53677	-174.15672	985.84175	-1570.23209	-66.81975	943.06145	-1466.30844	-143.89042	907.11708	-1473.7912	-108.48054	910.08217	-1407.70096	241.79575	926.79932	-1726.32278	8.14949	904.20784	-1710.68604	180.14519	976.74675	-1933.84232	34.31341	985.1815	-1922.37015	250.09769	688.98605	-1838.83347	299.65488	522.19513	-1597.19177	260.68048	330.98694	-1564.89548	239.12987	139.30823	-1640.70862	176.03716	130.27676	-1679.18472	243.44076	117.40933	-1473.40561	-11.07921	712.94861	-1974.9942	-14.69277	458.8847	-1970.80719	45.97924	277.40868	-2016.66245	19.44058	110.6661	-2159.35074	84.35934	129.26453	-2205.03311	34.39641	77.21638	-1994.56421
60	2.467	192.35256	1638.76083	-1621.98303	7.81751	1624.21143	-1628.15109	209.87675	1571.06293	-1731.94199	6.1381	1569.86328	-1732.10693	193.33216	1352.60513	-1613.74924	71.71831	1339.63715	-1598.90762	174.61668	1447.18338	-1742.25662	26.69842	1431.07529	-1712.59186	91.70403	1301.32828	-1840.1059	148.64946	1274.29382	-1585.71945	154.14299	1170.22118	-1587.00058	302.89968	1400.70587	-1713.6734	395.76622	1233.45459	-1811.19766	424.77337	1189.58504	-1900.80902	494.07108	1082.70409	-1895.7901	507.91573	945.05493	-1824.64584	523.92578	950.87982	-1902.20291	566.06617	912.8376	-1856.57608	-57.61054	1356.24435	-1629.44168	-145.70892	1200.36621	-1641.40228	-184.95459	1091.62132	-1621.11435	-169.19031	981.45996	-1528.72208	-60.41338	938.23486	-1426.70334	-137.8981	903.0603	-1432.60986	-101.38	906.25275	-1367.15652	244.65136	922.01416	-1693.8147	11.55467	895.97908	-1679.03564	182.80542	971.9986	-1901.08749	36.79682	979.64394	-1889.4313	250.14061	685.22324	-1806.19965	293.39693	519.22024	-1561.62476	258.39443	329.78855	-1519.67834	249.43298	132.86	-1583.48358	189.99325	118.68073	-1626.38672	239.66116	121.42963	-1414.5015	-9.25237	714.09157	-1950.09766	-13.72795	460.23125	-1957.13928	45.56629	279.69402	-2008.8382	17.52081	117.67562	-2157.54684	82.61548	138.10877	-2202.03735	33.52874	77.17366	-1994.95224
61	2.5	202.59668	1633.23517	-1579.21097	17.79505	1618.67706	-1585.90195	220.22793	1565.68268	-1689.07883	16.42726	1564.2691	-1689.56268	203.67056	1346.27151	-1573.19366	82.44003	1334.02557	-1556.4856	183.56682	1441.93237	-1701.29822	35.52153	1427.50259	-1669.02618	97.08387	1298.19778	-1798.55835	158.80127	1267.92419	-1544.87396	163.31594	1163.77953	-1547.55188	311.88477	1395.53741	-1674.21463	404.68018	1229.67262	-1773.35938	433.12012	1186.25694	-1863.08731	504.00951	1080.50499	-1860.04761	520.69714	942.00516	-1790.59799	536.14799	949.35875	-1868.07266	579.82849	912.10014	-1823.79211	-46.98744	1351.3121	-1584.00604	-137.41402	1197.1299	-1600.39963	-178.55183	1088.75404	-1583.57483	-164.38231	976.791	-1493.34076	-56.54177	930.76591	-1391.65176	-134.38002	896.37985	-1398.60626	-98.19548	898.4935	-1332.87476	244.86357	918.41293	-1654.92722	12.04326	890.23666	-1644.03076	188.10268	969.84116	-1862.72705	42.02051	975.90225	-1852.98309	254.85275	682.82196	-1768.43323	287.51022	512.28748	-1525.34149	255.2688	319.9477	-1492.35809	252.87897	124.16325	-1558.4726	195.68691	111.6295	-1606.01318	239.42198	106.94396	-1391.16425	-5.49275	714.72221	-1919.61899	-12.12481	461.29551	-1934.60968	45.71622	282.62234	-1994.98138	15.969	129.16849	-2153.16696	81.65606	152.11569	-2195.39139	32.39427	76.92117	-1995.09323
62	2.533	215.32047	1632.1312	-1535.37704	30.2375	1617.94952	-1543.27545	233.0415	1564.94965	-1645.48721	29.2978	1563.78021	-1646.50284	214.98028	1343.28766	-1530.18677	94.0695	1333.34824	-1511.98029	195.30649	1439.67606	-1658.41232	46.63242	1428.60001	-1624.89044	105.103	1297.71622	-1754.92981	169.13071	1265.69862	-1501.20499	171.55247	1161.67595	-1504.16458	322.84817	1391.0817	-1631.81198	415.05371	1223.9019	-1729.22668	443.74634	1178.9537	-1818.55667	514.52404	1073.59222	-1815.24261	530.54771	934.55399	-1746.42929	547.20539	943.04024	-1823.69904	590.5582	905.88737	-1778.97125	-34.52403	1350.58716	-1538.91785	-127.37206	1197.58507	-1561.50192	-170.25923	1089.42924	-1550.84412	-160.21257	973.40813	-1465.64011	-55.81724	921.53275	-1363.10593	-133.64078	888.37875	-1373.871	-99.84703	887.85271	-1307.03415	245.92857	916.74171	-1612.82883	13.2596	887.92946	-1603.97461	194.2853	971.5757	-1821.12656	48.04179	975.39993	-1812.17422	259.35743	680.92705	-1731.89896	286.35714	503.58109	-1493.21594	252.60973	310.59475	-1477.73361	247.41749	123.69168	-1564.02161	189.18337	114.05587	-1608.91998	241.40072	89.10964	-1398.42499	0.78762	714.27788	-1881.56845	-9.80032	461.82545	-1899.51889	45.88635	286.56507	-1972.38663	14.93782	147.28971	-2144.23569	81.70598	174.42104	-2182.45132	31.44683	76.36945	-1995.46524
63	2.567	230.36377	1635.5899	-1491.73355	45.15717	1624.21707	-1499.84558	247.11311	1568.36426	-1601.95511	43.44186	1570.41214	-1603.25104	224.76067	1345.6488	-1486.90002	104.20375	1338.90137	-1467.85477	206.99957	1442.83798	-1615.3714	57.52213	1434.81918	-1581.30142	113.38237	1302.02377	-1710.77896	177.73161	1269.19762	-1457.39441	178.40693	1165.22591	-1459.96201	333.43189	1390.09155	-1586.41708	423.94329	1218.51883	-1678.89557	454.26788	1169.9176	-1766.06705	523.33488	1064.43626	-1761.1647	536.54213	925.33661	-1692.21405	555.02274	934.04549	-1769.22729	597.05078	896.38824	-1723.58612	-24.48646	1355.72693	-1494.48135	-117.93267	1202.72804	-1526.93985	-161.37589	1094.75426	-1523.63083	-156.52368	973.04718	-1446.1615	-57.73893	912.40685	-1342.91977	-135.82654	880.98061	-1359.96094	-105.79874	876.52351	-1291.32065	253.09862	921.08238	-1570.0235	20.20174	891.15082	-1558.59833	195.65775	976.43158	-1778.69019	50.06815	977.82585	-1767.38312	257.97672	684.55917	-1697.50748	288.3	499.42394	-1470.65338	253.71084	304.99365	-1459.92981	247.38001	121.94779	-1553.8887	189.26893	115.9388	-1600.29846	238.27957	79.21449	-1388.57452	6.09988	711.44005	-1832.58698	-7.61059	461.20617	-1846.08322	46.91744	292.75673	-1937.76062	14.80224	175.76395	-2127.18323	83.51813	207.86798	-2157.9689	31.98014	75.66343	-1998.53363
64	2.6	245.69508	1641.86127	-1449.42444	60.1893	1635.37384	-1457.51434	260.57465	1575.87723	-1560.56091	57.10356	1583.22662	-1561.52527	232.50977	1354.39896	-1445.3067	112.13354	1349.85077	-1426.86035	217.11067	1450.16815	-1575.00565	67.39249	1444.65958	-1542.17667	121.82466	1309.49432	-1669.66171	184.60491	1278.61755	-1415.32776	184.32446	1174.64294	-1416.7807	342.9422	1394.98993	-1541.81732	430.75871	1216.0952	-1624.65836	462.47276	1161.82594	-1707.28592	528.66169	1055.5632	-1699.13239	537.76234	917.11014	-1627.85995	557.90874	924.39285	-1704.81415	598.2896	886.44096	-1657.99271	-17.52942	1367.26944	-1454.85718	-110.03896	1213.23929	-1496.27457	-152.71421	1105.02647	-1500.0943	-154.08208	977.38365	-1433.00919	-61.97677	905.10132	-1330.96466	-139.70877	877.42538	-1354.75769	-114.1042	866.31966	-1285.27985	262.86154	928.19664	-1527.4707	29.68036	898.43147	-1511.87897	195.77013	982.74399	-1735.51224	50.58046	982.31865	-1720.56854	256.75503	689.63402	-1664.06647	292.2847	492.72335	-1451.41281	255.38961	299.59763	-1446.82266	247.47543	121.78912	-1550.2684	189.91859	117.77528	-1597.31354	236.38437	75.3807	-1386.92261	8.25148	703.26424	-1774.00253	-2.44493	454.61212	-1771.24985	47.40531	300.71951	-1885.96375	14.5917	216.1031	-2092.3288	84.10682	253.16984	-2113.78418	33.1122	79.8711	-2001.76712
